<svg id="visual" viewBox="0 0 900 600" width="900" height="600" xmlns="http://www.w3.org/2000/svg" xmlns:xlink="http://www.w3.org/1999/xlink" version="1.1"><rect x="0" y="0" width="900" height="600" fill="#EAFCFF"></rect><defs><linearGradient id="grad1_0" x1="33.3%" y1="100%" x2="100%" y2="0%"><stop offset="20%" stop-color="#eafcff" stop-opacity="1"></stop><stop offset="80%" stop-color="#eafcff" stop-opacity="1"></stop></linearGradient></defs><defs><linearGradient id="grad2_0" x1="0%" y1="100%" x2="66.7%" y2="0%"><stop offset="20%" stop-color="#eafcff" stop-opacity="1"></stop><stop offset="80%" stop-color="#eafcff" stop-opacity="1"></stop></linearGradient></defs><g transform="translate(900, 600)"><path d="M-297.5 0C-303.3 -39.6 -309.2 -79.3 -275.8 -89.6C-242.4 -100 -169.8 -81 -155.3 -112.9C-140.9 -144.7 -184.6 -227.3 -174.8 -240.6C-165.1 -254 -101.7 -198 -63.7 -195.9C-25.6 -193.8 -12.8 -245.6 0 -297.5L0 0Z" fill="#27B7FC"></path></g><g transform="translate(0, 0)"><path d="M297.5 0C236.7 11.7 176 23.4 174 56.6C172.1 89.7 228.9 144.2 229 166.3C229 188.5 172.3 178.4 142.8 196.6C113.4 214.8 111.2 261.4 91.9 282.9C72.7 304.4 36.3 300.9 0 297.5L0 0Z" fill="#27B7FC"></path></g></svg>